<svg xmlns="http://www.w3.org/2000/svg" viewBox="0 0 469.5 180"><defs><style>.cls-1{fill:#b2e4eb;}.cls-2{fill:#7ed2dd;}.cls-3,.cls-4,.cls-5,.cls-6,.cls-7{fill:none;stroke-miterlimit:10;stroke-width:4.5px;}.cls-3{stroke:#5f9ea6;}.cls-4,.cls-5,.cls-7{stroke:#95afbd;}.cls-4,.cls-5,.cls-6{stroke-linecap:round;}.cls-5{stroke-dasharray:17.08 17.08;}.cls-6{stroke:#fff;}</style></defs><title>favicon</title><g id="Layer_2" data-name="Layer 2"><g id="Layer_3" data-name="Layer 3"><rect class="cls-1" x="69.75" width="30" height="180"/><rect class="cls-1" x="369.75" width="30" height="180"/><rect class="cls-2" x="99.75" y="7.5" width="270" height="165"/><line class="cls-3" x1="99.75" y1="75" x2="369.75" y2="75"/><line class="cls-3" x1="99.75" y1="105" x2="369.75" y2="105"/><line class="cls-3" x1="99.75" y1="135" x2="369.75" y2="135"/><line class="cls-4" x1="114.75" y1="22.5" x2="123.75" y2="22.5"/><line class="cls-5" x1="140.83" y1="22.5" x2="337.21" y2="22.5"/><line class="cls-4" x1="345.75" y1="22.5" x2="354.75" y2="22.5"/><line class="cls-4" x1="114.75" y1="157.5" x2="123.75" y2="157.5"/><line class="cls-5" x1="140.83" y1="157.5" x2="337.21" y2="157.5"/><line class="cls-4" x1="345.75" y1="157.5" x2="354.75" y2="157.5"/><line class="cls-6" x1="144.75" y1="37.5" x2="324.75" y2="37.5"/><path class="cls-7" d="M69.75,165c-37.28,0-67.5-33.58-67.5-75s30.22-75,67.5-75"/><path class="cls-7" d="M399.75,165c37.28,0,67.5-33.58,67.5-75S437,15,399.75,15"/></g></g></svg>